<svg width="55" height="8" viewBox="0 0 55 8" fill="none" xmlns="http://www.w3.org/2000/svg">
<rect width="55" height="8" fill="#EFEFEF"/>
<g id="Our Food &#62; Standard Menu">
<rect width="1440" height="4594" transform="translate(-570 -1020)" fill="white"/>
<g id="Body">
<g id="Section">
<rect width="1440" height="553" transform="translate(-570 -535)" fill="white"/>
<g id="Link">
<g id="Frame 49" clip-path="url(#clip0_0_1)">
<path id="Arrow 1" d="M54.3536 4.35355C54.5488 4.15829 54.5488 3.84171 54.3536 3.64645L51.1716 0.464466C50.9763 0.269204 50.6597 0.269204 50.4645 0.464466C50.2692 0.659728 50.2692 0.976311 50.4645 1.17157L53.2929 4L50.4645 6.82843C50.2692 7.02369 50.2692 7.34027 50.4645 7.53553C50.6597 7.7308 50.9763 7.7308 51.1716 7.53553L54.3536 4.35355ZM0 4.5H54V3.5H0V4.5Z" fill="black"/>
</g>
</g>
</g>
</g>
</g>
<defs>
<clipPath id="clip0_0_1">
<rect width="56" height="28" fill="white" transform="translate(0 -10)"/>
</clipPath>
</defs>
</svg>
