<svg width="115" height="37" viewBox="0 0 115 37" fill="none" xmlns="http://www.w3.org/2000/svg">
<g clip-path="url(#clip0_41_618)">
<path d="M4.8829 31.8011C4.5977 31.7317 4.4666 31.6981 4.4896 31.6981C4.0618 29.9845 3.5857 27.4264 3.0636 24.0261L1.1063 11.6299L0.7843 10.1022C0.2622 8.11089 0 6.71089 0 5.90001C0 5.73873 0.0529 5.59313 0.161 5.46545C0.2691 5.33777 0.3795 5.27505 0.4991 5.27505C0.5704 5.27505 0.6532 5.29745 0.7498 5.34449C0.8694 5.39153 0.9752 5.51921 1.0695 5.72753C1.1638 5.91345 1.2121 6.08593 1.2121 6.24721L1.2834 6.73329L1.7825 9.40785L2.1045 11.2469L3.887 23.1547L4.3493 26.452C4.5402 27.563 4.6943 28.6158 4.8116 29.6104L5.06 27.1464L5.451 23.1547L6.3066 15.5522C6.5205 13.3995 6.6746 11.9883 6.7689 11.3163L6.946 9.51089L7.1944 7.77489C7.314 7.08049 7.3968 6.43313 7.4428 5.83057C7.4911 5.39153 7.7165 5.16977 8.1213 5.16977L8.3352 5.30865H8.2639L8.6204 5.58641C8.6204 6.25841 8.5261 7.24177 8.3352 8.53649L8.1213 9.88945L8.0132 10.7563C7.705 13.2786 7.5141 14.8533 7.4428 15.4782C7.0863 18.4171 6.7114 21.6002 6.3204 25.0251C5.9294 28.4501 5.7201 30.4638 5.6971 31.0664C5.5062 31.5749 5.2808 31.8302 5.0186 31.8302L4.876 31.7944L4.8829 31.8011ZM4.8461 29.8232L4.8116 29.7179L4.7403 29.8232H4.8484H4.8461Z" fill="black"/>
<path d="M14.9861 31.5211C14.8205 31.5211 14.671 31.4629 14.5399 31.3486C14.4088 31.2321 14.3444 31.1067 14.3444 30.9678C14.3444 30.6677 14.5468 30.5176 14.9493 30.5176H16.3385C16.3385 27.8565 16.2557 24.4987 16.0901 20.4488C15.9958 17.2097 15.8992 14.6629 15.8049 12.8104L15.8394 11.0385V8.74703C15.8394 7.58895 15.8164 6.84975 15.7681 6.52495H14.5215C14.2846 6.52495 14.165 6.36367 14.165 6.03887C14.165 5.83055 14.2593 5.66927 14.4502 5.55279C14.6158 5.48335 15.0551 5.44751 15.7681 5.44751H16.7663C17.1228 5.46991 17.5736 5.48111 18.121 5.48111C18.3119 5.48111 18.466 5.52143 18.5833 5.60207C18.7029 5.68271 18.7627 5.80591 18.7627 5.96719C18.7627 6.10607 18.7259 6.23375 18.6546 6.35023C18.5833 6.46671 18.4752 6.52271 18.3326 6.52271C18.167 6.52271 18.0244 6.51151 17.9048 6.48911H17.1205C16.8836 6.48911 16.741 6.51151 16.6927 6.55855L16.6214 6.69743C16.6214 8.50287 16.7755 12.1473 17.0837 17.6331C17.3689 22.7022 17.5115 26.3467 17.5115 28.5688V29.5409C17.4885 29.8411 17.477 30.1547 17.477 30.4773H18.7604C19.3078 30.4773 19.5792 30.6385 19.5792 30.9634C19.5792 31.1022 19.5263 31.2366 19.4182 31.3621C19.3101 31.4897 19.1974 31.5525 19.0801 31.5525H17.155C16.5846 31.5301 15.8601 31.5166 14.9815 31.5166L14.9861 31.5211Z" fill="black"/>
<path d="M32.6077 31.9747C32.4651 31.8134 32.3708 31.6275 32.3225 31.4192L32.2144 30.7606C32.1431 30.4829 32.1063 30.3104 32.1063 30.2387C29.4452 20.9584 27.9824 15.7504 27.7225 14.6147C27.5086 13.7814 27.021 11.4675 26.2597 7.67072C26.2367 7.8096 26.2252 8.28448 26.2252 9.09312V21.6618L26.2965 26.6256L26.3678 31.5558L26.1539 31.8336H25.3351L25.227 31.5558C25.2753 31.3251 25.2983 30.8614 25.2983 30.167L25.2638 24.1258L25.1925 18.0845V10.24C25.1695 9.26784 25.158 8.1792 25.158 6.97632C25.158 6.83744 25.1465 6.70976 25.1235 6.59328V6.24608C25.1235 5.96832 25.1994 5.77792 25.3558 5.67264C25.5099 5.5696 25.7537 5.51584 26.0872 5.51584C26.2298 5.51584 26.3908 5.58528 26.5679 5.72416C26.7473 5.86304 26.8577 6.01312 26.906 6.1744L27.6535 9.57696C27.987 11.1965 28.2722 12.424 28.5091 13.2573C29.0082 15.1792 29.8638 18.3264 31.0759 22.7011C31.7659 25.5706 32.3823 27.7702 32.9297 29.2979C33.0723 28.9507 33.1436 28.3952 33.1436 27.6314C33.1436 25.3869 33.1666 23.3731 33.2149 21.5901L33.2862 15.5488C33.2862 14.5542 33.2977 13.6515 33.3207 12.8406V10.1683L33.2862 5.27392C33.4058 4.94912 33.6542 4.78784 34.0337 4.78784C34.2246 4.78784 34.3189 5.12384 34.3189 5.79584C34.3189 6.096 34.3074 6.34016 34.2821 6.52384C34.2821 6.70976 34.2752 6.84192 34.2637 6.92256C34.2522 7.0032 34.2453 7.05696 34.2453 7.07936V9.30144C34.2453 12.3792 34.2338 15.1232 34.2108 17.529C34.1878 19.9594 34.1763 22.6899 34.1763 25.7229C34.1763 26.3008 34.1395 27.2147 34.0682 28.4646L33.9969 31.2064C33.9969 31.8784 33.6887 32.2122 33.07 32.2122C32.9044 32.2122 32.748 32.1315 32.6077 31.9702V31.9747Z" fill="black"/>
<path d="M40.3072 31.5222C40.0818 31.4192 39.9691 31.2153 39.9691 30.9152V30.2544C39.9461 30.0685 39.9346 29.8601 39.9346 29.6294V29.56L39.9691 24.4909L39.9346 10.1526C39.9346 8.67199 39.9116 7.38623 39.8633 6.29983C39.8633 6.02207 39.9231 5.79135 40.0404 5.60543C40.16 5.41951 40.3141 5.32767 40.5027 5.32767H42.713C43.0465 5.32767 43.2949 5.35007 43.4605 5.39711C43.6974 5.46655 43.817 5.66367 43.817 5.98623C43.817 6.17215 43.7457 6.32223 43.6031 6.43647C43.4605 6.55295 43.3064 6.62239 43.1408 6.64479H42.5359L41.9655 6.61119L41.3951 6.57535C41.2295 6.57535 41.1145 6.60447 41.057 6.66271C40.9972 6.72095 40.9673 6.83071 40.9673 6.99199C40.9673 8.08063 40.9788 9.06399 41.0018 9.94207V17.2333C41.0018 17.2803 41.0248 17.3027 41.0731 17.3027H41.1444C41.7378 17.2557 42.3795 17.2333 43.0695 17.2333C43.449 17.2333 43.6399 17.3945 43.6399 17.7193C43.6399 17.9501 43.5985 18.1069 43.5157 18.1875C43.4329 18.2681 43.2949 18.3085 43.1063 18.3085H41.0754C40.9811 18.3085 40.9328 18.3667 40.9328 18.4809L41.0041 23.6195C41.0524 25.2166 41.0754 27.0557 41.0754 29.1389V30.4224H44.4265C44.8543 30.4224 45.0682 30.5725 45.0682 30.8726C45.0682 31.2422 44.9601 31.4618 44.7462 31.5334C44.461 31.6253 43.8791 31.6723 43.0005 31.6723H41.5032C40.9328 31.6723 40.5349 31.6208 40.3095 31.5155L40.3072 31.5222Z" fill="black"/>
<path d="M64.0149 30.4907C64.0149 30.8603 63.4813 31.0462 62.4118 31.0462C62.0553 31.0462 61.6689 30.9768 61.2526 30.8379C60.8363 30.699 60.4867 30.5377 60.2015 30.3518C59.845 30.1435 59.5115 29.9128 59.2033 29.6574C58.3707 30.2129 57.683 30.5893 57.1356 30.7864C56.5882 30.9835 55.9235 31.0821 55.1392 31.0821C54.3549 31.0821 53.5706 30.8043 52.8576 30.2488C52.1446 29.6933 51.5972 28.9989 51.2177 28.1656C50.8129 27.3323 50.6128 26.5326 50.6128 25.771C50.6128 24.7294 50.6841 23.8603 50.8267 23.1681L51.0061 22.0929C51.0291 21.8622 51.1372 21.515 51.3258 21.0513C51.3971 20.843 51.4615 20.6638 51.5213 20.5137C51.5811 20.3637 51.6225 20.2315 51.6455 20.115L52.1078 19.0734L52.6069 18.1349C52.6552 18.0184 52.7265 17.8683 52.8208 17.6846C52.9151 17.4987 53.0347 17.268 53.1773 16.9902L53.7822 15.8456C53.7822 15.2901 53.7477 14.4792 53.6741 13.4152C53.5798 12.4654 53.5315 11.6568 53.5315 10.9848V8.10415C53.5315 7.38735 53.6971 6.79599 54.0306 6.33455C54.2215 6.05679 54.4469 5.91791 54.7091 5.91791C55.2795 5.91791 55.8683 6.10383 56.4732 6.47343C57.0781 6.84303 57.3817 7.24847 57.3817 7.68751C57.3817 8.08175 57.3702 8.42895 57.3449 8.72911L57.2736 9.77071L57.3081 10.1873L56.5238 12.443C56.2616 13.1598 55.9534 13.8654 55.5969 14.5598C55.5739 14.6069 55.4428 14.7905 55.2036 15.1153C54.8241 15.6238 54.6332 16.0517 54.6332 16.3989C54.6332 17.1403 54.8701 18.4238 55.3462 20.2517C55.8223 22.0795 56.3927 23.8267 57.0574 25.4933C57.7934 27.2293 58.4121 28.1678 58.9112 28.3067C59.8151 26.5707 60.2659 24.3262 60.2659 21.571C60.2659 21.3851 60.2429 21.2462 60.1946 21.1544C60.1233 21.0379 60.052 21.0043 59.9807 21.0491C59.7185 21.0491 59.5414 20.9685 59.4471 20.8072V20.7377L59.4103 20.5294L59.4816 20.3569C59.9324 20.3569 60.6339 20.3099 61.5838 20.2181C62.5337 20.1262 63.1179 20.0321 63.3318 19.9403C63.4974 19.9627 63.64 20.0209 63.7596 20.115C63.8792 20.2069 63.939 20.3233 63.939 20.4622C63.939 20.6235 63.755 20.7579 63.387 20.8609C63.019 20.9662 62.6211 21.0177 62.1933 21.0177H61.7655C61.6459 20.9953 61.5033 20.9841 61.3377 20.9841H61.0893C61.0893 22.859 60.9835 24.3643 60.7696 25.4977C60.5557 26.6312 60.1509 27.7669 59.5575 28.9003C60.3648 29.8254 61.2917 30.2891 62.3382 30.2891C62.5751 30.2891 62.789 30.2779 62.9799 30.2555C63.3594 30.2085 63.5871 30.1861 63.6584 30.1861L64.0149 30.4997V30.4907ZM57.3495 29.9867C58.0855 29.6977 58.4673 29.3797 58.4903 29.0325C58.396 28.8465 58.1568 28.5822 57.7773 28.235C57.0643 27.5406 56.4042 26.452 55.7993 24.9713C55.1944 23.4907 54.7229 21.963 54.3917 20.3883L54.2146 18.9995C54.1433 18.3275 54.049 17.7966 53.9294 17.4024C53.1221 18.4216 52.4965 19.6133 52.0572 20.9774C51.6179 22.3438 51.3971 23.7326 51.3971 25.1438C51.3971 26.4408 51.7053 27.6213 52.324 28.6853C52.6322 29.2184 53.0554 29.6395 53.589 29.9531C54.1226 30.2667 54.7344 30.4213 55.4244 30.4213C55.9718 30.4213 56.6135 30.2779 57.3495 29.9867ZM54.7114 7.26415C54.4745 7.58895 54.3549 7.84207 54.3549 8.02799L54.3894 12.3333L54.4607 12.5057C54.4124 12.6917 54.3894 12.8888 54.3894 13.0971C54.3894 13.1889 54.4124 13.4443 54.4607 13.8609C54.4837 14.0693 54.4952 14.3246 54.4952 14.6248C54.9 14.2776 55.3508 13.3973 55.8499 11.9861C56.349 10.5749 56.5974 9.53327 56.5974 8.86127C56.5974 7.47247 56.1581 6.77807 55.2795 6.77807C55.1369 6.77807 54.946 6.93935 54.7091 7.26415H54.7114Z" fill="black"/>
<path d="M70.5918 31.4304C70.3066 31.2915 70.164 31.1302 70.164 30.9443C70.164 30.8054 70.2583 30.5747 70.4492 30.2499C70.6401 29.9498 70.7229 29.7168 70.6976 29.5555L70.5918 26.5002L70.3434 17.0227L70.2721 12.8227C70.2491 10.2534 70.1893 8.64512 70.0927 7.99776C70.0444 7.7424 69.9501 7.45344 69.8075 7.12864C69.6419 6.6896 69.5591 6.376 69.5591 6.19232C69.5591 5.6368 70.463 5.35904 72.2685 5.35904H72.4479C73.66 5.35904 74.7042 5.76448 75.5851 6.57536C76.2751 7.20032 76.8915 8.18368 77.4389 9.52544C77.8184 10.5894 78.1036 11.7811 78.2945 13.1005C78.3888 13.7949 78.4716 14.8589 78.5429 16.2947V17.3699C78.5429 18.8058 78.3474 20.3626 77.9541 22.0403C77.5608 23.7181 77.0088 25.2861 76.2958 26.7443C75.868 27.6694 75.316 28.5027 74.6375 29.2442C73.959 29.9856 73.3127 30.5702 72.694 30.9981C72.0753 31.4259 71.659 31.641 71.4474 31.641C71.1622 31.641 70.877 31.5715 70.5918 31.4326V31.4304ZM71.981 29.8669C72.8596 29.4278 73.6439 28.785 74.3339 27.9405C75.0239 27.096 75.569 26.1642 75.9738 25.145C76.3303 24.2893 76.627 23.3104 76.8639 22.2106C77.1008 21.1107 77.2687 20.087 77.363 19.1373C77.4343 18.304 77.4688 17.5066 77.4688 16.7427C77.4688 9.98464 75.5552 6.60448 71.7303 6.60448C71.2312 6.60448 70.9828 6.73216 70.9828 6.98528C70.9828 7.79616 71.0311 8.75712 71.1254 9.86592C71.2197 10.9994 71.268 11.9603 71.268 12.7466C71.268 14.0189 71.3623 16.2298 71.5532 19.377C71.7188 22.1075 71.8016 24.3072 71.8016 25.9738V29.8624H71.981V29.8669Z" fill="black"/>
<path d="M84.9108 31.5211C84.7452 31.5211 84.5957 31.4629 84.4646 31.3486C84.3335 31.2321 84.2691 31.1067 84.2691 30.9678C84.2691 30.6677 84.4715 30.5176 84.874 30.5176H86.2632C86.2632 27.8565 86.1804 24.4987 86.0148 20.4488C85.9205 17.2097 85.8239 14.6629 85.7296 12.8104L85.7641 11.0385V8.74703C85.7641 7.58895 85.7411 6.84975 85.6928 6.52495H84.4439C84.207 6.52495 84.0874 6.36367 84.0874 6.03887C84.0874 5.83055 84.1817 5.66927 84.3726 5.55279C84.5382 5.48335 84.9798 5.44751 85.6928 5.44751H86.691C87.0475 5.46991 87.4983 5.48111 88.0457 5.48111C88.2366 5.48111 88.3907 5.52143 88.508 5.60207C88.6253 5.68271 88.6851 5.80591 88.6851 5.96719C88.6851 6.10607 88.6506 6.23375 88.5793 6.35023C88.508 6.46671 88.3999 6.52271 88.2596 6.52271C88.094 6.52271 87.9491 6.51151 87.8318 6.48911H87.0475C86.8106 6.48911 86.668 6.51151 86.6197 6.55855L86.5484 6.69743C86.5484 8.50287 86.7025 12.1473 87.0107 17.6331C87.2959 22.7022 87.4385 26.3467 87.4385 28.5688V29.5409C87.4155 29.8411 87.404 30.1547 87.404 30.4773H88.6874C89.2348 30.4773 89.5085 30.6385 89.5085 30.9634C89.5085 31.1022 89.4556 31.2366 89.3475 31.3621C89.2394 31.4897 89.1267 31.5525 89.0094 31.5525H87.0843C86.5139 31.5301 85.7894 31.5166 84.9085 31.5166L84.9108 31.5211Z" fill="black"/>
<path d="M102.537 31.9747C102.394 31.8134 102.3 31.6275 102.252 31.4192L102.144 30.7606C102.072 30.4829 102.038 30.3104 102.038 30.2387C99.3767 20.9584 97.9139 15.7504 97.6517 14.6147C97.4378 13.7814 96.9502 11.4675 96.1912 7.67072C96.1682 7.8096 96.1567 8.28448 96.1567 9.09312V21.6618L96.228 26.6256L96.2993 31.5558L96.0854 31.8336H95.2643L95.1585 31.5558C95.2068 31.3251 95.2298 30.8614 95.2298 30.167L95.1953 24.1258L95.124 18.0845V10.24C95.101 9.26784 95.0895 8.1792 95.0895 6.97632C95.0895 6.83744 95.078 6.70976 95.0527 6.59328V6.24608C95.0527 5.96832 95.1309 5.77792 95.285 5.67264C95.4391 5.5696 95.6829 5.51584 96.0164 5.51584C96.159 5.51584 96.32 5.58528 96.4971 5.72416C96.6742 5.86304 96.7869 6.01312 96.8352 6.1744L97.5827 9.57696C97.9162 11.1965 98.2014 12.424 98.4383 13.2573C98.9374 15.1792 99.793 18.3264 101.005 22.7011C101.695 25.5706 102.312 27.7702 102.859 29.2979C103.002 28.9507 103.073 28.3952 103.073 27.6314C103.073 25.3869 103.096 23.3731 103.144 21.5901L103.215 15.5488C103.215 14.5542 103.227 13.6515 103.25 12.8406V10.1683L103.215 5.27392C103.335 4.94912 103.583 4.78784 103.963 4.78784C104.154 4.78784 104.248 5.12384 104.248 5.79584C104.248 6.096 104.237 6.34016 104.214 6.52384C104.214 6.70976 104.207 6.84192 104.195 6.92256C104.184 7.0032 104.177 7.05696 104.177 7.07936V9.30144C104.177 12.3792 104.165 15.1232 104.142 17.529C104.119 19.9594 104.108 22.6899 104.108 25.7229C104.108 26.3008 104.073 27.2147 104 28.4646L103.928 31.2064C103.928 31.8784 103.62 32.2122 103.002 32.2122C102.836 32.2122 102.682 32.1315 102.539 31.9702L102.537 31.9747Z" fill="black"/>
<path d="M110.237 31.5222C110.011 31.4192 109.899 31.2153 109.899 30.9152V30.2544C109.876 30.0685 109.864 29.8601 109.864 29.6294V29.56L109.899 24.4909L109.864 10.1526C109.864 8.67199 109.841 7.38623 109.793 6.29983C109.793 6.02207 109.853 5.79135 109.972 5.60543C110.092 5.41951 110.246 5.32767 110.435 5.32767H112.645C112.978 5.32767 113.227 5.35007 113.395 5.39711C113.632 5.46655 113.751 5.66367 113.751 5.98623C113.751 6.17215 113.68 6.32223 113.537 6.43647C113.395 6.55295 113.241 6.62239 113.075 6.64479H112.47L111.9 6.61119L111.329 6.57535C111.164 6.57535 111.049 6.60447 110.991 6.66271C110.931 6.72095 110.902 6.83071 110.902 6.99199C110.902 8.08063 110.913 9.06399 110.936 9.94207V17.2333C110.936 17.2803 110.959 17.3027 111.007 17.3027H111.079C111.672 17.2557 112.314 17.2333 113.004 17.2333C113.383 17.2333 113.574 17.3945 113.574 17.7193C113.574 17.9501 113.533 18.1069 113.45 18.1875C113.367 18.2681 113.229 18.3085 113.041 18.3085H111.007C110.913 18.3085 110.865 18.3667 110.865 18.4809L110.936 23.6195C110.984 25.2166 111.007 27.0557 111.007 29.1389V30.4224H114.358C114.786 30.4224 115 30.5725 115 30.8726C115 31.2422 114.894 31.4618 114.68 31.5334C114.395 31.6253 113.813 31.6723 112.935 31.6723H111.437C110.867 31.6723 110.469 31.6208 110.244 31.5155L110.237 31.5222Z" fill="black"/>
</g>
<defs>
<clipPath id="clip0_41_618">
<rect width="115" height="27.4243" fill="white" transform="translate(0 4.78784)"/>
</clipPath>
</defs>
</svg>
